<svg width="24" height="24" viewBox="0 0 24 24" fill="none" xmlns="http://www.w3.org/2000/svg">
<mask id="mask0_124_1247" style="mask-type:alpha" maskUnits="userSpaceOnUse" x="0" y="0" width="24" height="24">
<rect width="24" height="24" fill="#D9D9D9"/>
</mask>
<g mask="url(#mask0_124_1247)">
<path d="M10.725 21C9.59028 21 8.61893 20.6083 7.81091 19.825C7.00289 19.0417 6.59888 18.1 6.59888 17C6.59888 15.9 7.00289 14.9583 7.81091 14.175C8.61893 13.3917 9.59028 13 10.725 13C11.1204 13 11.4855 13.0457 11.8204 13.137C12.156 13.229 12.4785 13.3667 12.788 13.55V3H18.9771V7H14.851V17C14.851 18.1 14.447 19.0417 13.639 19.825C12.831 20.6083 11.8596 21 10.725 21Z" fill="#1C1B1F"/>
</g>
</svg>
