<svg width="24" height="24" viewBox="0 0 24 24" fill="none" xmlns="http://www.w3.org/2000/svg">
<mask id="mask0_124_1235" style="mask-type:alpha" maskUnits="userSpaceOnUse" x="0" y="0" width="24" height="24">
<rect width="24" height="24" fill="#D9D9D9"/>
</mask>
<g mask="url(#mask0_124_1235)">
<path d="M12.7879 12C11.6532 12 10.6819 11.6083 9.87388 10.825C9.06585 10.0417 8.66184 9.1 8.66184 8C8.66184 6.9 9.06585 5.95833 9.87388 5.175C10.6819 4.39167 11.6532 4 12.7879 4C13.9226 4 14.8939 4.39167 15.702 5.175C16.51 5.95833 16.914 6.9 16.914 8C16.914 9.1 16.51 10.0417 15.702 10.825C14.8939 11.6083 13.9226 12 12.7879 12ZM4.53577 20V17.2C4.53577 16.6333 4.68637 16.1123 4.98757 15.637C5.28809 15.1623 5.68763 14.8 6.1862 14.55C7.2521 14.0333 8.33519 13.6457 9.43548 13.387C10.5358 13.129 11.6532 13 12.7879 13C13.9226 13 15.0401 13.129 16.1404 13.387C17.2406 13.6457 18.3237 14.0333 19.3896 14.55C19.8882 14.8 20.2877 15.1623 20.5883 15.637C20.8895 16.1123 21.0401 16.6333 21.0401 17.2V20H4.53577ZM6.5988 18H18.977V17.2C18.977 17.0167 18.9299 16.85 18.8357 16.7C18.7408 16.55 18.616 16.4333 18.4613 16.35C17.5329 15.9 16.5959 15.5623 15.6504 15.337C14.7048 15.1123 13.7507 15 12.7879 15C11.8252 15 10.871 15.1123 9.92545 15.337C8.97989 15.5623 8.04293 15.9 7.11456 16.35C6.95984 16.4333 6.83537 16.55 6.74115 16.7C6.64625 16.85 6.5988 17.0167 6.5988 17.2V18ZM12.7879 10C13.3553 10 13.8411 9.804 14.2455 9.412C14.6491 9.02067 14.851 8.55 14.851 8C14.851 7.45 14.6491 6.97933 14.2455 6.588C13.8411 6.196 13.3553 6 12.7879 6C12.2206 6 11.7351 6.196 11.3314 6.588C10.9271 6.97933 10.7249 7.45 10.7249 8C10.7249 8.55 10.9271 9.02067 11.3314 9.412C11.7351 9.804 12.2206 10 12.7879 10Z" fill="#1C1B1F"/>
</g>
</svg>
