<svg width="24" height="24" viewBox="0 0 24 24" fill="none" xmlns="http://www.w3.org/2000/svg">
<mask id="mask0_109_1050" style="mask-type:alpha" maskUnits="userSpaceOnUse" x="0" y="0" width="24" height="24">
<rect width="24" height="24" fill="#D9D9D9"/>
</mask>
<g mask="url(#mask0_109_1050)">
<path d="M5.56731 21C4.99997 21 4.51413 20.8043 4.10977 20.413C3.70611 20.021 3.50427 19.55 3.50427 19V15H5.56731V19H20.0086V5H5.56731V9H3.50427V5C3.50427 4.45 3.70611 3.979 4.10977 3.587C4.51413 3.19567 4.99997 3 5.56731 3H20.0086C20.5759 3 21.0618 3.19567 21.4661 3.587C21.8698 3.979 22.0716 4.45 22.0716 5V19C22.0716 19.55 21.8698 20.021 21.4661 20.413C21.0618 20.8043 20.5759 21 20.0086 21H5.56731ZM11.2407 17L9.79654 15.55L12.4269 13H3.50427V11H12.4269L9.79654 8.45L11.2407 7L16.3983 12L11.2407 17Z" fill="#1C1B1F"/>
</g>
</svg>
